<mxfile host="app.diagrams.net" modified="2021-10-07T14:46:54.596Z" agent="5.0 (Windows NT 10.0; Win64; x64) AppleWebKit/537.36 (KHTML, like Gecko) Chrome/94.0.4606.71 Safari/537.36 Edg/94.0.992.38" etag="gC0FHnf-gCyM9h2k23G4" version="15.4.3" type="github">
  <diagram id="tt16CUAmKmsDfrhSTAVQ" name="Page-1">
    <mxGraphModel dx="888" dy="522" grid="0" gridSize="10" guides="1" tooltips="1" connect="1" arrows="1" fold="1" page="1" pageScale="1" pageWidth="827" pageHeight="1169" math="0" shadow="1">
      <root>
        <mxCell id="0" />
        <mxCell id="1" parent="0" />
        <mxCell id="V9NV4cRi3M5yUaqhrEHP-4" value="PWM" style="edgeStyle=orthogonalEdgeStyle;rounded=0;orthogonalLoop=1;jettySize=auto;html=1;exitX=1;exitY=0.25;exitDx=0;exitDy=0;entryX=0;entryY=0.5;entryDx=0;entryDy=0;fontSize=12;labelBackgroundColor=none;" edge="1" parent="1" source="aouQzcIuxVsfk-nvNX3M-3" target="aouQzcIuxVsfk-nvNX3M-26">
          <mxGeometry x="-0.3889" y="9" relative="1" as="geometry">
            <Array as="points">
              <mxPoint x="303" y="322" />
              <mxPoint x="303" y="313" />
            </Array>
            <mxPoint as="offset" />
          </mxGeometry>
        </mxCell>
        <mxCell id="V9NV4cRi3M5yUaqhrEHP-6" style="edgeStyle=orthogonalEdgeStyle;rounded=0;orthogonalLoop=1;jettySize=auto;html=1;exitX=1;exitY=0.25;exitDx=0;exitDy=0;entryX=0;entryY=0.5;entryDx=0;entryDy=0;fontSize=12;" edge="1" parent="1" source="aouQzcIuxVsfk-nvNX3M-3" target="V9NV4cRi3M5yUaqhrEHP-1">
          <mxGeometry relative="1" as="geometry">
            <Array as="points">
              <mxPoint x="303" y="322" />
              <mxPoint x="303" y="367" />
            </Array>
          </mxGeometry>
        </mxCell>
        <mxCell id="aouQzcIuxVsfk-nvNX3M-3" value="&lt;h2 style=&quot;line-height: 1&quot;&gt;Vi&lt;br&gt;Điều&lt;br&gt;Khiển&lt;/h2&gt;" style="rounded=1;whiteSpace=wrap;html=1;" parent="1" vertex="1">
          <mxGeometry x="180" y="272" width="71" height="198" as="geometry" />
        </mxCell>
        <mxCell id="aouQzcIuxVsfk-nvNX3M-4" value="INT" style="edgeStyle=orthogonalEdgeStyle;rounded=0;orthogonalLoop=1;jettySize=auto;html=1;exitX=1;exitY=0.5;exitDx=0;exitDy=0;entryX=0;entryY=0.25;entryDx=0;entryDy=0;" parent="1" source="hExfQF_apJxOjdvna3_--15" target="aouQzcIuxVsfk-nvNX3M-3" edge="1">
          <mxGeometry x="-0.616" relative="1" as="geometry">
            <mxPoint as="offset" />
            <mxPoint x="110" y="309" as="sourcePoint" />
            <Array as="points">
              <mxPoint x="155" y="302" />
              <mxPoint x="155" y="322" />
            </Array>
            <mxPoint x="180" y="314" as="targetPoint" />
          </mxGeometry>
        </mxCell>
        <mxCell id="aouQzcIuxVsfk-nvNX3M-6" value="INT" style="edgeStyle=orthogonalEdgeStyle;rounded=0;orthogonalLoop=1;jettySize=auto;html=1;exitX=1;exitY=0.5;exitDx=0;exitDy=0;entryX=0;entryY=0.5;entryDx=0;entryDy=0;" parent="1" source="hExfQF_apJxOjdvna3_--14" target="aouQzcIuxVsfk-nvNX3M-3" edge="1">
          <mxGeometry x="-0.5812" relative="1" as="geometry">
            <mxPoint x="180" y="364" as="targetPoint" />
            <mxPoint as="offset" />
            <mxPoint x="110" y="357" as="sourcePoint" />
            <Array as="points">
              <mxPoint x="154" y="352" />
              <mxPoint x="154" y="371" />
            </Array>
          </mxGeometry>
        </mxCell>
        <mxCell id="aouQzcIuxVsfk-nvNX3M-8" value="INT" style="edgeStyle=orthogonalEdgeStyle;rounded=0;orthogonalLoop=1;jettySize=auto;html=1;exitX=1;exitY=0.5;exitDx=0;exitDy=0;fontSize=11;entryX=0;entryY=0.5;entryDx=0;entryDy=0;" parent="1" source="hExfQF_apJxOjdvna3_--13" target="aouQzcIuxVsfk-nvNX3M-3" edge="1">
          <mxGeometry x="-0.5429" relative="1" as="geometry">
            <mxPoint as="offset" />
            <mxPoint x="110" y="405" as="sourcePoint" />
            <Array as="points">
              <mxPoint x="154" y="402" />
              <mxPoint x="154" y="371" />
            </Array>
            <mxPoint x="170" y="402" as="targetPoint" />
          </mxGeometry>
        </mxCell>
        <mxCell id="aouQzcIuxVsfk-nvNX3M-10" value="ADC" style="edgeStyle=orthogonalEdgeStyle;rounded=0;orthogonalLoop=1;jettySize=auto;html=1;entryX=0;entryY=0.75;entryDx=0;entryDy=0;fontSize=11;exitX=1;exitY=0.5;exitDx=0;exitDy=0;" parent="1" source="hExfQF_apJxOjdvna3_--12" target="aouQzcIuxVsfk-nvNX3M-3" edge="1">
          <mxGeometry x="-0.5826" relative="1" as="geometry">
            <mxPoint as="offset" />
            <mxPoint x="110" y="456" as="sourcePoint" />
            <Array as="points">
              <mxPoint x="154" y="452" />
              <mxPoint x="154" y="421" />
            </Array>
            <mxPoint x="180" y="413" as="targetPoint" />
          </mxGeometry>
        </mxCell>
        <mxCell id="aouQzcIuxVsfk-nvNX3M-13" value="&lt;h3&gt;Động cơ&lt;br&gt;BLDC&lt;/h3&gt;" style="ellipse;whiteSpace=wrap;html=1;aspect=fixed;" parent="1" vertex="1">
          <mxGeometry x="733" y="307" width="80" height="80" as="geometry" />
        </mxCell>
        <mxCell id="aouQzcIuxVsfk-nvNX3M-14" value="&lt;h3 style=&quot;font-size: 12px&quot;&gt;+3,3V&lt;/h3&gt;" style="edgeStyle=orthogonalEdgeStyle;rounded=0;orthogonalLoop=1;jettySize=auto;html=1;exitX=0.5;exitY=0;exitDx=0;exitDy=0;entryX=0.5;entryY=1;entryDx=0;entryDy=0;verticalAlign=middle;horizontal=1;labelBackgroundColor=none;fontSize=11;" parent="1" source="aouQzcIuxVsfk-nvNX3M-16" target="aouQzcIuxVsfk-nvNX3M-3" edge="1">
          <mxGeometry x="0.2" y="-20" relative="1" as="geometry">
            <mxPoint as="offset" />
          </mxGeometry>
        </mxCell>
        <mxCell id="aouQzcIuxVsfk-nvNX3M-15" value="&lt;h3&gt;+12V&lt;/h3&gt;" style="edgeStyle=orthogonalEdgeStyle;rounded=0;orthogonalLoop=1;jettySize=auto;html=1;exitX=1;exitY=0.5;exitDx=0;exitDy=0;labelBackgroundColor=none;entryX=0.75;entryY=1;entryDx=0;entryDy=0;" parent="1" source="aouQzcIuxVsfk-nvNX3M-16" target="aouQzcIuxVsfk-nvNX3M-17" edge="1">
          <mxGeometry x="-0.2398" y="11" relative="1" as="geometry">
            <mxPoint as="offset" />
            <mxPoint x="604" y="506" as="targetPoint" />
            <Array as="points">
              <mxPoint x="275" y="550" />
              <mxPoint x="608" y="550" />
            </Array>
          </mxGeometry>
        </mxCell>
        <mxCell id="aouQzcIuxVsfk-nvNX3M-16" value="&lt;h3&gt;Khối nguồn&lt;/h3&gt;" style="rounded=0;whiteSpace=wrap;html=1;" parent="1" vertex="1">
          <mxGeometry x="155" y="517" width="120" height="60" as="geometry" />
        </mxCell>
        <mxCell id="hExfQF_apJxOjdvna3_--9" value="Cảm biến dòng" style="edgeStyle=orthogonalEdgeStyle;rounded=0;orthogonalLoop=1;jettySize=auto;html=1;entryX=0;entryY=0.5;entryDx=0;entryDy=0;fontSize=12;exitX=0.5;exitY=1;exitDx=0;exitDy=0;labelBackgroundColor=none;" parent="1" source="aouQzcIuxVsfk-nvNX3M-17" target="hExfQF_apJxOjdvna3_--5" edge="1">
          <mxGeometry x="0.083" y="11" relative="1" as="geometry">
            <Array as="points">
              <mxPoint x="564" y="445" />
            </Array>
            <mxPoint as="offset" />
          </mxGeometry>
        </mxCell>
        <mxCell id="aouQzcIuxVsfk-nvNX3M-17" value="Mạch lái Phase A/B/C" style="swimlane;startSize=23;" parent="1" vertex="1">
          <mxGeometry x="475" y="244.5" width="177" height="170" as="geometry" />
        </mxCell>
        <mxCell id="V9NV4cRi3M5yUaqhrEHP-15" style="edgeStyle=orthogonalEdgeStyle;rounded=0;orthogonalLoop=1;jettySize=auto;html=1;exitX=1;exitY=0.75;exitDx=0;exitDy=0;labelBackgroundColor=none;fontSize=11;" edge="1" parent="aouQzcIuxVsfk-nvNX3M-17" source="aouQzcIuxVsfk-nvNX3M-20" target="aouQzcIuxVsfk-nvNX3M-22">
          <mxGeometry relative="1" as="geometry" />
        </mxCell>
        <mxCell id="V9NV4cRi3M5yUaqhrEHP-16" style="edgeStyle=orthogonalEdgeStyle;rounded=0;orthogonalLoop=1;jettySize=auto;html=1;exitX=1;exitY=0.25;exitDx=0;exitDy=0;labelBackgroundColor=none;fontSize=11;" edge="1" parent="aouQzcIuxVsfk-nvNX3M-17" source="aouQzcIuxVsfk-nvNX3M-20" target="aouQzcIuxVsfk-nvNX3M-21">
          <mxGeometry relative="1" as="geometry" />
        </mxCell>
        <mxCell id="aouQzcIuxVsfk-nvNX3M-20" value="&lt;h3&gt;IR2101&lt;/h3&gt;" style="rounded=1;whiteSpace=wrap;html=1;" parent="aouQzcIuxVsfk-nvNX3M-17" vertex="1">
          <mxGeometry x="17" y="40.5" width="57" height="110" as="geometry" />
        </mxCell>
        <mxCell id="aouQzcIuxVsfk-nvNX3M-21" value="MOSFET&lt;br&gt;H" style="ellipse;whiteSpace=wrap;html=1;aspect=fixed;" parent="aouQzcIuxVsfk-nvNX3M-17" vertex="1">
          <mxGeometry x="105" y="40.5" width="56.5" height="56.5" as="geometry" />
        </mxCell>
        <mxCell id="aouQzcIuxVsfk-nvNX3M-22" value="MOSFET&lt;br&gt;L" style="ellipse;whiteSpace=wrap;html=1;aspect=fixed;" parent="aouQzcIuxVsfk-nvNX3M-17" vertex="1">
          <mxGeometry x="105" y="95" width="55.5" height="55.5" as="geometry" />
        </mxCell>
        <mxCell id="aouQzcIuxVsfk-nvNX3M-25" value="HIN" style="edgeStyle=orthogonalEdgeStyle;rounded=0;orthogonalLoop=1;jettySize=auto;html=1;entryX=0;entryY=0.25;entryDx=0;entryDy=0;fontSize=12;fontStyle=1" parent="1" source="aouQzcIuxVsfk-nvNX3M-26" target="aouQzcIuxVsfk-nvNX3M-20" edge="1">
          <mxGeometry x="-0.3176" relative="1" as="geometry">
            <mxPoint as="offset" />
          </mxGeometry>
        </mxCell>
        <mxCell id="aouQzcIuxVsfk-nvNX3M-26" value="&lt;h3&gt;&lt;span style=&quot;font-weight: normal&quot;&gt;AND PWM phía cao&lt;/span&gt;&lt;/h3&gt;" style="rounded=1;whiteSpace=wrap;html=1;" parent="1" vertex="1">
          <mxGeometry x="323" y="289.75" width="80" height="45.5" as="geometry" />
        </mxCell>
        <mxCell id="aouQzcIuxVsfk-nvNX3M-27" value="&lt;h3&gt;BEMF&lt;/h3&gt;" style="endArrow=classic;html=1;rounded=0;edgeStyle=orthogonalEdgeStyle;entryX=0;entryY=0.5;entryDx=0;entryDy=0;labelBackgroundColor=none;horizontal=0;exitX=0;exitY=0.5;exitDx=0;exitDy=0;" parent="1" source="aouQzcIuxVsfk-nvNX3M-13" target="aouQzcIuxVsfk-nvNX3M-29" edge="1">
          <mxGeometry x="-0.1894" y="-10" width="50" height="50" relative="1" as="geometry">
            <mxPoint x="761" y="207" as="sourcePoint" />
            <mxPoint x="684" y="180.5" as="targetPoint" />
            <Array as="points">
              <mxPoint x="714" y="347" />
              <mxPoint x="714" y="202" />
              <mxPoint x="657" y="202" />
            </Array>
            <mxPoint y="1" as="offset" />
          </mxGeometry>
        </mxCell>
        <mxCell id="aouQzcIuxVsfk-nvNX3M-28" value="Mạch lọc Back - EMF" style="swimlane;" parent="1" vertex="1">
          <mxGeometry x="383" y="106" width="288" height="120" as="geometry" />
        </mxCell>
        <mxCell id="aouQzcIuxVsfk-nvNX3M-32" style="edgeStyle=orthogonalEdgeStyle;rounded=0;orthogonalLoop=1;jettySize=auto;html=1;exitX=1;exitY=0.5;exitDx=0;exitDy=0;entryX=1;entryY=0.5;entryDx=0;entryDy=0;" parent="aouQzcIuxVsfk-nvNX3M-28" source="aouQzcIuxVsfk-nvNX3M-29" target="aouQzcIuxVsfk-nvNX3M-31" edge="1">
          <mxGeometry relative="1" as="geometry" />
        </mxCell>
        <mxCell id="aouQzcIuxVsfk-nvNX3M-29" value="Mạch trừ" style="triangle;whiteSpace=wrap;html=1;direction=west;align=right;" parent="aouQzcIuxVsfk-nvNX3M-28" vertex="1">
          <mxGeometry x="200" y="40" width="74" height="60" as="geometry" />
        </mxCell>
        <mxCell id="aouQzcIuxVsfk-nvNX3M-35" style="edgeStyle=orthogonalEdgeStyle;rounded=0;orthogonalLoop=1;jettySize=auto;html=1;exitX=0;exitY=0.5;exitDx=0;exitDy=0;entryX=0;entryY=0.5;entryDx=0;entryDy=0;" parent="aouQzcIuxVsfk-nvNX3M-28" source="aouQzcIuxVsfk-nvNX3M-31" target="aouQzcIuxVsfk-nvNX3M-34" edge="1">
          <mxGeometry relative="1" as="geometry" />
        </mxCell>
        <mxCell id="aouQzcIuxVsfk-nvNX3M-31" value="Mạch lọc hạ thông" style="rounded=1;whiteSpace=wrap;html=1;" parent="aouQzcIuxVsfk-nvNX3M-28" vertex="1">
          <mxGeometry x="111" y="50" width="66" height="40" as="geometry" />
        </mxCell>
        <mxCell id="aouQzcIuxVsfk-nvNX3M-34" value="So sánh &lt;br&gt;điện áp" style="triangle;whiteSpace=wrap;html=1;direction=west;align=right;" parent="aouQzcIuxVsfk-nvNX3M-28" vertex="1">
          <mxGeometry x="10" y="35" width="74" height="70" as="geometry" />
        </mxCell>
        <mxCell id="aouQzcIuxVsfk-nvNX3M-36" value="&lt;h4&gt;Zero Crossing Point&lt;/h4&gt;" style="edgeStyle=orthogonalEdgeStyle;rounded=0;orthogonalLoop=1;jettySize=auto;html=1;exitX=1;exitY=0.5;exitDx=0;exitDy=0;entryX=0.5;entryY=0;entryDx=0;entryDy=0;labelBackgroundColor=none;" parent="1" source="aouQzcIuxVsfk-nvNX3M-34" target="aouQzcIuxVsfk-nvNX3M-3" edge="1">
          <mxGeometry x="-0.3077" y="-10" relative="1" as="geometry">
            <mxPoint as="offset" />
          </mxGeometry>
        </mxCell>
        <mxCell id="V9NV4cRi3M5yUaqhrEHP-8" style="edgeStyle=orthogonalEdgeStyle;rounded=0;orthogonalLoop=1;jettySize=auto;html=1;exitX=1;exitY=0.5;exitDx=0;exitDy=0;entryX=0;entryY=0.5;entryDx=0;entryDy=0;labelBackgroundColor=none;fontSize=11;" edge="1" parent="1" source="hExfQF_apJxOjdvna3_--5" target="V9NV4cRi3M5yUaqhrEHP-7">
          <mxGeometry relative="1" as="geometry" />
        </mxCell>
        <mxCell id="hExfQF_apJxOjdvna3_--5" value="&lt;b&gt;Khuếch đại&lt;br&gt;vi sai&lt;/b&gt;" style="triangle;whiteSpace=wrap;html=1;fontSize=12;direction=west;align=right;" parent="1" vertex="1">
          <mxGeometry x="387" y="404.5" width="80" height="80" as="geometry" />
        </mxCell>
        <mxCell id="hExfQF_apJxOjdvna3_--11" value="Nút điều khiển" style="swimlane;" parent="1" vertex="1">
          <mxGeometry x="14" y="244.5" width="130" height="240" as="geometry">
            <mxRectangle x="14" y="252" width="110" height="23" as="alternateBounds" />
          </mxGeometry>
        </mxCell>
        <mxCell id="hExfQF_apJxOjdvna3_--12" value="SPEED" style="rounded=1;whiteSpace=wrap;html=1;" parent="hExfQF_apJxOjdvna3_--11" vertex="1">
          <mxGeometry x="10" y="187" width="70" height="40" as="geometry" />
        </mxCell>
        <mxCell id="hExfQF_apJxOjdvna3_--13" value="REVERSE" style="rounded=1;whiteSpace=wrap;html=1;" parent="hExfQF_apJxOjdvna3_--11" vertex="1">
          <mxGeometry x="12" y="137" width="70" height="40" as="geometry" />
        </mxCell>
        <mxCell id="hExfQF_apJxOjdvna3_--14" value="STOP" style="rounded=1;whiteSpace=wrap;html=1;" parent="hExfQF_apJxOjdvna3_--11" vertex="1">
          <mxGeometry x="12" y="87" width="70" height="40" as="geometry" />
        </mxCell>
        <mxCell id="hExfQF_apJxOjdvna3_--15" value="START" style="rounded=1;whiteSpace=wrap;html=1;" parent="hExfQF_apJxOjdvna3_--11" vertex="1">
          <mxGeometry x="12" y="37" width="70" height="40" as="geometry" />
        </mxCell>
        <mxCell id="V9NV4cRi3M5yUaqhrEHP-3" value="&lt;font style=&quot;font-size: 12px&quot;&gt;&lt;b&gt;LIN&lt;/b&gt;&lt;/font&gt;" style="edgeStyle=orthogonalEdgeStyle;rounded=0;orthogonalLoop=1;jettySize=auto;html=1;entryX=0;entryY=0.75;entryDx=0;entryDy=0;" edge="1" parent="1" source="V9NV4cRi3M5yUaqhrEHP-1" target="aouQzcIuxVsfk-nvNX3M-20">
          <mxGeometry x="-0.3084" relative="1" as="geometry">
            <mxPoint as="offset" />
          </mxGeometry>
        </mxCell>
        <mxCell id="V9NV4cRi3M5yUaqhrEHP-1" value="&lt;h3&gt;&lt;span style=&quot;font-weight: normal&quot;&gt;AND PWM phía cao&lt;/span&gt;&lt;/h3&gt;" style="rounded=1;whiteSpace=wrap;html=1;fontStyle=0" vertex="1" parent="1">
          <mxGeometry x="323" y="343.75" width="80" height="45.5" as="geometry" />
        </mxCell>
        <mxCell id="V9NV4cRi3M5yUaqhrEHP-9" value="INT" style="edgeStyle=orthogonalEdgeStyle;rounded=0;orthogonalLoop=1;jettySize=auto;html=1;exitX=1;exitY=0.5;exitDx=0;exitDy=0;entryX=1.025;entryY=0.869;entryDx=0;entryDy=0;entryPerimeter=0;labelBackgroundColor=none;fontSize=11;fontStyle=1" edge="1" parent="1" source="V9NV4cRi3M5yUaqhrEHP-7" target="aouQzcIuxVsfk-nvNX3M-3">
          <mxGeometry x="-0.1423" y="-9" relative="1" as="geometry">
            <mxPoint as="offset" />
          </mxGeometry>
        </mxCell>
        <mxCell id="V9NV4cRi3M5yUaqhrEHP-7" value="So sánh &lt;br&gt;điện áp" style="triangle;whiteSpace=wrap;html=1;direction=west;align=right;" vertex="1" parent="1">
          <mxGeometry x="292" y="409.5" width="74" height="70" as="geometry" />
        </mxCell>
        <mxCell id="V9NV4cRi3M5yUaqhrEHP-17" value="" style="edgeStyle=orthogonalEdgeStyle;rounded=0;orthogonalLoop=1;jettySize=auto;html=1;labelBackgroundColor=none;fontSize=11;" edge="1" parent="1" source="aouQzcIuxVsfk-nvNX3M-21" target="aouQzcIuxVsfk-nvNX3M-13">
          <mxGeometry relative="1" as="geometry" />
        </mxCell>
        <mxCell id="V9NV4cRi3M5yUaqhrEHP-18" style="edgeStyle=orthogonalEdgeStyle;rounded=0;orthogonalLoop=1;jettySize=auto;html=1;exitX=1;exitY=0.5;exitDx=0;exitDy=0;entryX=0;entryY=0.5;entryDx=0;entryDy=0;labelBackgroundColor=none;fontSize=11;" edge="1" parent="1" source="aouQzcIuxVsfk-nvNX3M-22" target="aouQzcIuxVsfk-nvNX3M-13">
          <mxGeometry relative="1" as="geometry" />
        </mxCell>
      </root>
    </mxGraphModel>
  </diagram>
</mxfile>
